<svg xmlns="http://www.w3.org/2000/svg" xmlns:xlink="http://www.w3.org/1999/xlink" contentStyleType="text/css" data-diagram-type="CLASS" height="1084px" preserveAspectRatio="none" style="width:933px;height:1084px;background:#1B1B1B;" version="1.1" viewBox="0 0 933 1084" width="933px" zoomAndPan="magnify"><defs/><g><rect fill="#1B1B1B" height="1084" style="stroke:none;stroke-width:1;" width="933" x="0" y="0"/><!--class ComunidadController--><g class="entity" data-entity="ComunidadController" data-source-line="1" data-uid="ent0002" id="entity_ComunidadController"><rect fill="#313139" height="162.0781" rx="2.5" ry="2.5" style="stroke:#E7E7E7;stroke-width:0.5;" width="291.7881" x="200.7" y="7"/><ellipse cx="267.7742" cy="23" fill="#2E5233" rx="11" ry="11" style="stroke:#E7E7E7;stroke-width:1;"/><path d="M270.743,28.6406 Q270.1648,28.9375 269.5242,29.0781 Q268.8836,29.2344 268.1805,29.2344 Q265.6805,29.2344 264.3523,27.5938 Q263.0398,25.9375 263.0398,22.8125 Q263.0398,19.6875 264.3523,18.0313 Q265.6805,16.375 268.1805,16.375 Q268.8836,16.375 269.5242,16.5313 Q270.1805,16.6875 270.743,16.9844 L270.743,19.7031 Q270.118,19.125 269.5242,18.8594 Q268.9305,18.5781 268.3055,18.5781 Q266.9617,18.5781 266.2742,19.6563 Q265.5867,20.7188 265.5867,22.8125 Q265.5867,24.9063 266.2742,25.9844 Q266.9617,27.0469 268.3055,27.0469 Q268.9305,27.0469 269.5242,26.7813 Q270.118,26.5 270.743,25.9219 L270.743,28.6406 Z " fill="#FFFFFF"/><text fill="#FFFFFF" font-family="sans-serif" font-size="14" lengthAdjust="spacing" textLength="149.1396" x="288.2742" y="27.8467">ComunidadController</text><line style="stroke:#E7E7E7;stroke-width:0.5;" x1="201.7" x2="491.4881" y1="39" y2="39"/><rect fill="none" height="6" style="stroke:#C82930;stroke-width:1;" width="6" x="208.7" y="49.6484"/><text fill="#FFFFFF" font-family="sans-serif" font-size="14" lengthAdjust="spacing" textLength="265.7881" x="220.7" y="55.9951">ComunidadService comunidadService</text><line style="stroke:#E7E7E7;stroke-width:0.5;" x1="201.7" x2="491.4881" y1="63.2969" y2="63.2969"/><ellipse cx="211.7" cy="76.9453" fill="#84BE84" rx="3" ry="3" style="stroke:#038048;stroke-width:1;"/><text fill="#FFFFFF" font-family="sans-serif" font-size="14" lengthAdjust="spacing" textLength="141.5654" x="220.7" y="80.292">mostrarFormulario()</text><ellipse cx="211.7" cy="93.2422" fill="#84BE84" rx="3" ry="3" style="stroke:#038048;stroke-width:1;"/><text fill="#FFFFFF" font-family="sans-serif" font-size="14" lengthAdjust="spacing" textLength="132.0088" x="220.7" y="96.5889">procesarArchivos()</text><ellipse cx="211.7" cy="109.5391" fill="#84BE84" rx="3" ry="3" style="stroke:#038048;stroke-width:1;"/><text fill="#FFFFFF" font-family="sans-serif" font-size="14" lengthAdjust="spacing" textLength="152.4141" x="220.7" y="112.8857">mostrarPropiedades()</text><ellipse cx="211.7" cy="125.8359" fill="#84BE84" rx="3" ry="3" style="stroke:#038048;stroke-width:1;"/><text fill="#FFFFFF" font-family="sans-serif" font-size="14" lengthAdjust="spacing" textLength="149.7275" x="220.7" y="129.1826">mostrarPropietarios()</text><ellipse cx="211.7" cy="142.1328" fill="#84BE84" rx="3" ry="3" style="stroke:#038048;stroke-width:1;"/><text fill="#FFFFFF" font-family="sans-serif" font-size="14" lengthAdjust="spacing" textLength="114.5771" x="220.7" y="145.4795">mostrarCuotas()</text><ellipse cx="211.7" cy="158.4297" fill="#84BE84" rx="3" ry="3" style="stroke:#038048;stroke-width:1;"/><text fill="#FFFFFF" font-family="sans-serif" font-size="14" lengthAdjust="spacing" textLength="131.6328" x="220.7" y="161.7764">mostrarResumen()</text></g><!--class ComunidadService--><g class="entity" data-entity="ComunidadService" data-source-line="11" data-uid="ent0003" id="entity_ComunidadService"><rect fill="#313139" height="162.0781" rx="2.5" ry="2.5" style="stroke:#E7E7E7;stroke-width:0.5;" width="291.665" x="200.77" y="230.08"/><ellipse cx="276.4985" cy="246.08" fill="#2E5233" rx="11" ry="11" style="stroke:#E7E7E7;stroke-width:1;"/><path d="M279.4673,251.7206 Q278.8891,252.0175 278.2485,252.1581 Q277.6079,252.3144 276.9048,252.3144 Q274.4048,252.3144 273.0766,250.6738 Q271.7641,249.0175 271.7641,245.8925 Q271.7641,242.7675 273.0766,241.1113 Q274.4048,239.455 276.9048,239.455 Q277.6079,239.455 278.2485,239.6113 Q278.9048,239.7675 279.4673,240.0644 L279.4673,242.7831 Q278.8423,242.205 278.2485,241.9394 Q277.6548,241.6581 277.0298,241.6581 Q275.686,241.6581 274.9985,242.7363 Q274.311,243.7988 274.311,245.8925 Q274.311,247.9863 274.9985,249.0644 Q275.686,250.1269 277.0298,250.1269 Q277.6548,250.1269 278.2485,249.8613 Q278.8423,249.58 279.4673,249.0019 L279.4673,251.7206 Z " fill="#FFFFFF"/><text fill="#FFFFFF" font-family="sans-serif" font-size="14" lengthAdjust="spacing" textLength="131.708" x="296.9985" y="250.9267">ComunidadService</text><line style="stroke:#E7E7E7;stroke-width:0.5;" x1="201.77" x2="491.435" y1="262.08" y2="262.08"/><rect fill="none" height="6" style="stroke:#C82930;stroke-width:1;" width="6" x="208.77" y="272.7284"/><text fill="#FFFFFF" font-family="sans-serif" font-size="14" lengthAdjust="spacing" textLength="139.0977" x="220.77" y="279.0751">FileParser fileParser</text><rect fill="none" height="6" style="stroke:#C82930;stroke-width:1;" width="6" x="208.77" y="289.0253"/><text fill="#FFFFFF" font-family="sans-serif" font-size="14" lengthAdjust="spacing" textLength="265.665" x="220.77" y="295.372">CalculadoraCuotas calculadoraCuotas</text><rect fill="none" height="6" style="stroke:#C82930;stroke-width:1;" width="6" x="208.77" y="305.3222"/><text fill="#FFFFFF" font-family="sans-serif" font-size="14" lengthAdjust="spacing" textLength="206.4111" x="220.77" y="311.6689">Comunidad comunidadActual</text><line style="stroke:#E7E7E7;stroke-width:0.5;" x1="201.77" x2="491.435" y1="318.9706" y2="318.9706"/><ellipse cx="211.77" cy="332.6191" fill="#84BE84" rx="3" ry="3" style="stroke:#038048;stroke-width:1;"/><text fill="#FFFFFF" font-family="sans-serif" font-size="14" lengthAdjust="spacing" textLength="132.0088" x="220.77" y="335.9657">procesarArchivos()</text><ellipse cx="211.77" cy="348.9159" fill="#84BE84" rx="3" ry="3" style="stroke:#038048;stroke-width:1;"/><text fill="#FFFFFF" font-family="sans-serif" font-size="14" lengthAdjust="spacing" textLength="157.9854" x="220.77" y="352.2626">getComunidadActual()</text><ellipse cx="211.77" cy="365.2128" fill="#84BE84" rx="3" ry="3" style="stroke:#038048;stroke-width:1;"/><text fill="#FFFFFF" font-family="sans-serif" font-size="14" lengthAdjust="spacing" textLength="194.1133" x="220.77" y="368.5595">getPropietariosOrdenados()</text><ellipse cx="211.77" cy="381.5097" fill="#84BE84" rx="3" ry="3" style="stroke:#038048;stroke-width:1;"/><text fill="#FFFFFF" font-family="sans-serif" font-size="14" lengthAdjust="spacing" textLength="213.6572" x="220.77" y="384.8564">calcularCuotasPorPropietario()</text></g><!--class FileParser--><g class="entity" data-entity="FileParser" data-source-line="21" data-uid="ent0004" id="entity_FileParser"><rect fill="#313139" height="145.7813" rx="2.5" ry="2.5" style="stroke:#E7E7E7;stroke-width:0.5;" width="185.1953" x="7" y="477.6"/><ellipse cx="60.9048" cy="493.6" fill="#2E5233" rx="11" ry="11" style="stroke:#E7E7E7;stroke-width:1;"/><path d="M63.8735,499.2406 Q63.2954,499.5375 62.6548,499.6781 Q62.0142,499.8344 61.311,499.8344 Q58.811,499.8344 57.4829,498.1938 Q56.1704,496.5375 56.1704,493.4125 Q56.1704,490.2875 57.4829,488.6313 Q58.811,486.975 61.311,486.975 Q62.0142,486.975 62.6548,487.1313 Q63.311,487.2875 63.8735,487.5844 L63.8735,490.3031 Q63.2485,489.725 62.6548,489.4594 Q62.061,489.1781 61.436,489.1781 Q60.0923,489.1781 59.4048,490.2563 Q58.7173,491.3188 58.7173,493.4125 Q58.7173,495.5063 59.4048,496.5844 Q60.0923,497.6469 61.436,497.6469 Q62.061,497.6469 62.6548,497.3813 Q63.2485,497.1 63.8735,496.5219 L63.8735,499.2406 Z " fill="#FFFFFF"/><text fill="#FFFFFF" font-family="sans-serif" font-size="14" lengthAdjust="spacing" textLength="68.8857" x="81.4048" y="498.4467">FileParser</text><line style="stroke:#E7E7E7;stroke-width:0.5;" x1="8" x2="191.1953" y1="509.6" y2="509.6"/><line style="stroke:#E7E7E7;stroke-width:0.5;" x1="8" x2="191.1953" y1="517.6" y2="517.6"/><ellipse cx="18" cy="531.2484" fill="#84BE84" rx="3" ry="3" style="stroke:#038048;stroke-width:1;"/><text fill="#FFFFFF" font-family="sans-serif" font-size="14" lengthAdjust="spacing" textLength="130.0195" x="27" y="534.5951">parseComunidad()</text><ellipse cx="18" cy="547.5453" fill="#84BE84" rx="3" ry="3" style="stroke:#038048;stroke-width:1;"/><text fill="#FFFFFF" font-family="sans-serif" font-size="14" lengthAdjust="spacing" textLength="98.123" x="27" y="550.892">parseGastos()</text><rect fill="#F24D5C" height="6" style="stroke:#C82930;stroke-width:1;" width="6" x="15" y="560.8422"/><text fill="#FFFFFF" font-family="sans-serif" font-size="14" lengthAdjust="spacing" textLength="159.1953" x="27" y="567.1889">parseComunidadLine()</text><rect fill="#F24D5C" height="6" style="stroke:#C82930;stroke-width:1;" width="6" x="15" y="577.1391"/><text fill="#FFFFFF" font-family="sans-serif" font-size="14" lengthAdjust="spacing" textLength="114.8369" x="27" y="583.4857">parseZonaLine()</text><rect fill="#F24D5C" height="6" style="stroke:#C82930;stroke-width:1;" width="6" x="15" y="593.4359"/><text fill="#FFFFFF" font-family="sans-serif" font-size="14" lengthAdjust="spacing" textLength="149.7344" x="27" y="599.7826">parsePropiedadLine()</text><rect fill="#F24D5C" height="6" style="stroke:#C82930;stroke-width:1;" width="6" x="15" y="609.7328"/><text fill="#FFFFFF" font-family="sans-serif" font-size="14" lengthAdjust="spacing" textLength="155.6611" x="27" y="616.0795">parsePropietarioLine()</text></g><!--class CalculadoraCuotas--><g class="entity" data-entity="CalculadoraCuotas" data-source-line="30" data-uid="ent0005" id="entity_CalculadoraCuotas"><rect fill="#313139" height="129.4844" rx="2.5" ry="2.5" style="stroke:#E7E7E7;stroke-width:0.5;" width="239.6572" x="226.77" y="485.75"/><ellipse cx="276.5254" cy="501.75" fill="#2E5233" rx="11" ry="11" style="stroke:#E7E7E7;stroke-width:1;"/><path d="M279.4941,507.3906 Q278.916,507.6875 278.2754,507.8281 Q277.6347,507.9844 276.9316,507.9844 Q274.4316,507.9844 273.1035,506.3438 Q271.791,504.6875 271.791,501.5625 Q271.791,498.4375 273.1035,496.7813 Q274.4316,495.125 276.9316,495.125 Q277.6347,495.125 278.2754,495.2813 Q278.9316,495.4375 279.4941,495.7344 L279.4941,498.4531 Q278.8691,497.875 278.2754,497.6094 Q277.6816,497.3281 277.0566,497.3281 Q275.7129,497.3281 275.0254,498.4063 Q274.3379,499.4688 274.3379,501.5625 Q274.3379,503.6563 275.0254,504.7344 Q275.7129,505.7969 277.0566,505.7969 Q277.6816,505.7969 278.2754,505.5313 Q278.8691,505.25 279.4941,504.6719 L279.4941,507.3906 Z " fill="#FFFFFF"/><text fill="#FFFFFF" font-family="sans-serif" font-size="14" lengthAdjust="spacing" textLength="131.6465" x="297.0254" y="506.5967">CalculadoraCuotas</text><line style="stroke:#E7E7E7;stroke-width:0.5;" x1="227.77" x2="465.4272" y1="517.75" y2="517.75"/><line style="stroke:#E7E7E7;stroke-width:0.5;" x1="227.77" x2="465.4272" y1="525.75" y2="525.75"/><ellipse cx="237.77" cy="539.3984" fill="#84BE84" rx="3" ry="3" style="stroke:#038048;stroke-width:1;"/><text fill="#FFFFFF" font-family="sans-serif" font-size="14" lengthAdjust="spacing" textLength="114.4609" x="246.77" y="542.7451">calcularCuotas()</text><ellipse cx="237.77" cy="555.6953" fill="#84BE84" rx="3" ry="3" style="stroke:#038048;stroke-width:1;"/><text fill="#FFFFFF" font-family="sans-serif" font-size="14" lengthAdjust="spacing" textLength="213.6572" x="246.77" y="559.042">calcularCuotasPorPropietario()</text><ellipse cx="237.77" cy="571.9922" fill="#84BE84" rx="3" ry="3" style="stroke:#038048;stroke-width:1;"/><text fill="#FFFFFF" font-family="sans-serif" font-size="14" lengthAdjust="spacing" textLength="131.6328" x="246.77" y="575.3389">generarResumen()</text><rect fill="#F24D5C" height="6" style="stroke:#C82930;stroke-width:1;" width="6" x="234.77" y="585.2891"/><text fill="#FFFFFF" font-family="sans-serif" font-size="14" lengthAdjust="spacing" textLength="208.9678" x="246.77" y="591.6357">calcularRepartoProporcional()</text><rect fill="#F24D5C" height="6" style="stroke:#C82930;stroke-width:1;" width="6" x="234.77" y="601.5859"/><text fill="#FFFFFF" font-family="sans-serif" font-size="14" lengthAdjust="spacing" textLength="192.0283" x="246.77" y="607.9326">calcularRepartoIgualitario()</text></g><!--class Comunidad--><g class="entity" data-entity="Comunidad" data-source-line="38" data-uid="ent0006" id="entity_Comunidad"><rect fill="#313139" height="194.6719" rx="2.5" ry="2.5" style="stroke:#E7E7E7;stroke-width:0.5;" width="313.7246" x="501.74" y="453.16"/><ellipse cx="614.3689" cy="469.16" fill="#2E5233" rx="11" ry="11" style="stroke:#E7E7E7;stroke-width:1;"/><path d="M617.3377,474.8006 Q616.7595,475.0975 616.1189,475.2381 Q615.4783,475.3944 614.7752,475.3944 Q612.2752,475.3944 610.947,473.7538 Q609.6345,472.0975 609.6345,468.9725 Q609.6345,465.8475 610.947,464.1913 Q612.2752,462.535 614.7752,462.535 Q615.4783,462.535 616.1189,462.6913 Q616.7752,462.8475 617.3377,463.1444 L617.3377,465.8631 Q616.7127,465.285 616.1189,465.0194 Q615.5252,464.7381 614.9002,464.7381 Q613.5564,464.7381 612.8689,465.8163 Q612.1814,466.8788 612.1814,468.9725 Q612.1814,471.0663 612.8689,472.1444 Q613.5564,473.2069 614.9002,473.2069 Q615.5252,473.2069 616.1189,472.9413 Q616.7127,472.66 617.3377,472.0819 L617.3377,474.8006 Z " fill="#FFFFFF"/><text fill="#FFFFFF" font-family="sans-serif" font-size="14" lengthAdjust="spacing" textLength="79.9668" x="634.8689" y="474.0067">Comunidad</text><line style="stroke:#E7E7E7;stroke-width:0.5;" x1="502.74" x2="814.4646" y1="485.16" y2="485.16"/><rect fill="none" height="6" style="stroke:#C82930;stroke-width:1;" width="6" x="509.74" y="495.8084"/><text fill="#FFFFFF" font-family="sans-serif" font-size="14" lengthAdjust="spacing" textLength="59.0078" x="521.74" y="502.1551">String id</text><rect fill="none" height="6" style="stroke:#C82930;stroke-width:1;" width="6" x="509.74" y="512.1053"/><text fill="#FFFFFF" font-family="sans-serif" font-size="14" lengthAdjust="spacing" textLength="100.5635" x="521.74" y="518.452">String nombre</text><rect fill="none" height="6" style="stroke:#C82930;stroke-width:1;" width="6" x="509.74" y="528.4022"/><text fill="#FFFFFF" font-family="sans-serif" font-size="14" lengthAdjust="spacing" textLength="114.0645" x="521.74" y="534.7489">String poblacion</text><rect fill="none" height="6" style="stroke:#C82930;stroke-width:1;" width="6" x="509.74" y="544.6991"/><text fill="#FFFFFF" font-family="sans-serif" font-size="14" lengthAdjust="spacing" textLength="128.6523" x="521.74" y="551.0457">List&lt;Zona&gt; zonas</text><rect fill="none" height="6" style="stroke:#C82930;stroke-width:1;" width="6" x="509.74" y="560.9959"/><text fill="#FFFFFF" font-family="sans-serif" font-size="14" lengthAdjust="spacing" textLength="209.7471" x="521.74" y="567.3426">List&lt;Propiedad&gt; propiedades</text><rect fill="none" height="6" style="stroke:#C82930;stroke-width:1;" width="6" x="509.74" y="577.2928"/><text fill="#FFFFFF" font-family="sans-serif" font-size="14" lengthAdjust="spacing" textLength="212.9873" x="521.74" y="583.6395">List&lt;Propietario&gt; propietarios</text><rect fill="none" height="6" style="stroke:#C82930;stroke-width:1;" width="6" x="509.74" y="593.5897"/><text fill="#FFFFFF" font-family="sans-serif" font-size="14" lengthAdjust="spacing" textLength="139.2686" x="521.74" y="599.9364">List&lt;Gasto&gt; gastos</text><rect fill="none" height="6" style="stroke:#C82930;stroke-width:1;" width="6" x="509.74" y="609.8866"/><text fill="#FFFFFF" font-family="sans-serif" font-size="14" lengthAdjust="spacing" textLength="287.7246" x="521.74" y="616.2332">Map&lt;Zona, BigDecimal&gt; totalesPorZona</text><rect fill="none" height="6" style="stroke:#C82930;stroke-width:1;" width="6" x="509.74" y="626.1834"/><text fill="#FFFFFF" font-family="sans-serif" font-size="14" lengthAdjust="spacing" textLength="171.1035" x="521.74" y="632.5301">BigDecimal totalGeneral</text><line style="stroke:#E7E7E7;stroke-width:0.5;" x1="502.74" x2="814.4646" y1="639.8319" y2="639.8319"/></g><!--class Propiedad--><g class="entity" data-entity="Propiedad" data-source-line="50" data-uid="ent0007" id="entity_Propiedad"><rect fill="#313139" height="162.0781" rx="2.5" ry="2.5" style="stroke:#E7E7E7;stroke-width:0.5;" width="296.1904" x="360.5" y="708.83"/><ellipse cx="469.0923" cy="724.83" fill="#2E5233" rx="11" ry="11" style="stroke:#E7E7E7;stroke-width:1;"/><path d="M472.061,730.4706 Q471.4829,730.7675 470.8423,730.9081 Q470.2017,731.0644 469.4985,731.0644 Q466.9985,731.0644 465.6704,729.4238 Q464.3579,727.7675 464.3579,724.6425 Q464.3579,721.5175 465.6704,719.8613 Q466.9985,718.205 469.4985,718.205 Q470.2017,718.205 470.8423,718.3613 Q471.4985,718.5175 472.061,718.8144 L472.061,721.5331 Q471.436,720.955 470.8423,720.6894 Q470.2485,720.4081 469.6235,720.4081 Q468.2798,720.4081 467.5923,721.4863 Q466.9048,722.5488 466.9048,724.6425 Q466.9048,726.7363 467.5923,727.8144 Q468.2798,728.8769 469.6235,728.8769 Q470.2485,728.8769 470.8423,728.6113 Q471.436,728.33 472.061,727.7519 L472.061,730.4706 Z " fill="#FFFFFF"/><text fill="#FFFFFF" font-family="sans-serif" font-size="14" lengthAdjust="spacing" textLength="70.5059" x="489.5923" y="729.6767">Propiedad</text><line style="stroke:#E7E7E7;stroke-width:0.5;" x1="361.5" x2="655.6904" y1="740.83" y2="740.83"/><rect fill="none" height="6" style="stroke:#C82930;stroke-width:1;" width="6" x="368.5" y="751.4784"/><text fill="#FFFFFF" font-family="sans-serif" font-size="14" lengthAdjust="spacing" textLength="92.7227" x="380.5" y="757.8251">String codigo</text><rect fill="none" height="6" style="stroke:#C82930;stroke-width:1;" width="6" x="368.5" y="767.7753"/><text fill="#FFFFFF" font-family="sans-serif" font-size="14" lengthAdjust="spacing" textLength="147.2529" x="380.5" y="774.122">int metrosCuadrados</text><rect fill="none" height="6" style="stroke:#C82930;stroke-width:1;" width="6" x="368.5" y="784.0722"/><text fill="#FFFFFF" font-family="sans-serif" font-size="14" lengthAdjust="spacing" textLength="157.7598" x="380.5" y="790.4189">Propietario propietario</text><rect fill="none" height="6" style="stroke:#C82930;stroke-width:1;" width="6" x="368.5" y="800.3691"/><text fill="#FFFFFF" font-family="sans-serif" font-size="14" lengthAdjust="spacing" textLength="270.1904" x="380.5" y="806.7157">Map&lt;Zona, Integer&gt; porcentajesZona</text><rect fill="none" height="6" style="stroke:#C82930;stroke-width:1;" width="6" x="368.5" y="816.6659"/><text fill="#FFFFFF" font-family="sans-serif" font-size="14" lengthAdjust="spacing" textLength="73.0625" x="380.5" y="823.0126">String tipo</text><rect fill="none" height="6" style="stroke:#C82930;stroke-width:1;" width="6" x="368.5" y="832.9628"/><text fill="#FFFFFF" font-family="sans-serif" font-size="14" lengthAdjust="spacing" textLength="136.3359" x="380.5" y="839.3095">String infoAdicional</text><rect fill="none" height="6" style="stroke:#C82930;stroke-width:1;" width="6" x="368.5" y="849.2597"/><text fill="#FFFFFF" font-family="sans-serif" font-size="14" lengthAdjust="spacing" textLength="227.9307" x="380.5" y="855.6064">Map&lt;Zona, BigDecimal&gt; cuotas</text><line style="stroke:#E7E7E7;stroke-width:0.5;" x1="361.5" x2="655.6904" y1="862.9081" y2="862.9081"/></g><!--class Propietario--><g class="entity" data-entity="Propietario" data-source-line="60" data-uid="ent0008" id="entity_Propietario"><rect fill="#313139" height="129.4844" rx="2.5" ry="2.5" style="stroke:#E7E7E7;stroke-width:0.5;" width="235.7471" x="261.72" y="947.91"/><ellipse cx="337.1272" cy="963.91" fill="#2E5233" rx="11" ry="11" style="stroke:#E7E7E7;stroke-width:1;"/><path d="M340.096,969.5506 Q339.5179,969.8475 338.8772,969.9881 Q338.2366,970.1444 337.5335,970.1444 Q335.0335,970.1444 333.7054,968.5038 Q332.3929,966.8475 332.3929,963.7225 Q332.3929,960.5975 333.7054,958.9413 Q335.0335,957.285 337.5335,957.285 Q338.2366,957.285 338.8772,957.4413 Q339.5335,957.5975 340.096,957.8944 L340.096,960.6131 Q339.471,960.035 338.8772,959.7694 Q338.2835,959.4881 337.6585,959.4881 Q336.3147,959.4881 335.6272,960.5663 Q334.9397,961.6288 334.9397,963.7225 Q334.9397,965.8163 335.6272,966.8944 Q336.3147,967.9569 337.6585,967.9569 Q338.2835,967.9569 338.8772,967.6913 Q339.471,967.41 340.096,966.8319 L340.096,969.5506 Z " fill="#FFFFFF"/><text fill="#FFFFFF" font-family="sans-serif" font-size="14" lengthAdjust="spacing" textLength="76.4326" x="357.6272" y="968.7567">Propietario</text><line style="stroke:#E7E7E7;stroke-width:0.5;" x1="262.72" x2="496.4671" y1="979.91" y2="979.91"/><rect fill="none" height="6" style="stroke:#C82930;stroke-width:1;" width="6" x="269.72" y="990.5584"/><text fill="#FFFFFF" font-family="sans-serif" font-size="14" lengthAdjust="spacing" textLength="92.7227" x="281.72" y="996.9051">String codigo</text><rect fill="none" height="6" style="stroke:#C82930;stroke-width:1;" width="6" x="269.72" y="1006.8553"/><text fill="#FFFFFF" font-family="sans-serif" font-size="14" lengthAdjust="spacing" textLength="100.5635" x="281.72" y="1013.202">String nombre</text><rect fill="none" height="6" style="stroke:#C82930;stroke-width:1;" width="6" x="269.72" y="1023.1522"/><text fill="#FFFFFF" font-family="sans-serif" font-size="14" lengthAdjust="spacing" textLength="110.0996" x="281.72" y="1029.4989">String direccion</text><rect fill="none" height="6" style="stroke:#C82930;stroke-width:1;" width="6" x="269.72" y="1039.4491"/><text fill="#FFFFFF" font-family="sans-serif" font-size="14" lengthAdjust="spacing" textLength="84.8408" x="281.72" y="1045.7957">String email</text><rect fill="none" height="6" style="stroke:#C82930;stroke-width:1;" width="6" x="269.72" y="1055.7459"/><text fill="#FFFFFF" font-family="sans-serif" font-size="14" lengthAdjust="spacing" textLength="209.7471" x="281.72" y="1062.0926">List&lt;Propiedad&gt; propiedades</text><line style="stroke:#E7E7E7;stroke-width:0.5;" x1="262.72" x2="496.4671" y1="1069.3944" y2="1069.3944"/></g><!--class Zona--><g class="entity" data-entity="Zona" data-source-line="68" data-uid="ent0009" id="entity_Zona"><rect fill="#313139" height="96.8906" rx="2.5" ry="2.5" style="stroke:#E7E7E7;stroke-width:0.5;" width="143.8037" x="586.7" y="964.2"/><ellipse cx="636.5477" cy="980.2" fill="#2E5233" rx="11" ry="11" style="stroke:#E7E7E7;stroke-width:1;"/><path d="M639.5164,985.8406 Q638.9383,986.1375 638.2977,986.2781 Q637.657,986.4344 636.9539,986.4344 Q634.4539,986.4344 633.1258,984.7938 Q631.8133,983.1375 631.8133,980.0125 Q631.8133,976.8875 633.1258,975.2313 Q634.4539,973.575 636.9539,973.575 Q637.657,973.575 638.2977,973.7313 Q638.9539,973.8875 639.5164,974.1844 L639.5164,976.9031 Q638.8914,976.325 638.2977,976.0594 Q637.7039,975.7781 637.0789,975.7781 Q635.7352,975.7781 635.0477,976.8563 Q634.3602,977.9188 634.3602,980.0125 Q634.3602,982.1063 635.0477,983.1844 Q635.7352,984.2469 637.0789,984.2469 Q637.7039,984.2469 638.2977,983.9813 Q638.8914,983.7 639.5164,983.1219 L639.5164,985.8406 Z " fill="#FFFFFF"/><text fill="#FFFFFF" font-family="sans-serif" font-size="14" lengthAdjust="spacing" textLength="35.6084" x="657.0477" y="985.0467">Zona</text><line style="stroke:#E7E7E7;stroke-width:0.5;" x1="587.7" x2="729.5037" y1="996.2" y2="996.2"/><rect fill="none" height="6" style="stroke:#C82930;stroke-width:1;" width="6" x="594.7" y="1006.8484"/><text fill="#FFFFFF" font-family="sans-serif" font-size="14" lengthAdjust="spacing" textLength="59.0078" x="606.7" y="1013.1951">String id</text><rect fill="none" height="6" style="stroke:#C82930;stroke-width:1;" width="6" x="594.7" y="1023.1453"/><text fill="#FFFFFF" font-family="sans-serif" font-size="14" lengthAdjust="spacing" textLength="100.5635" x="606.7" y="1029.492">String nombre</text><rect fill="none" height="6" style="stroke:#C82930;stroke-width:1;" width="6" x="594.7" y="1039.4422"/><text fill="#FFFFFF" font-family="sans-serif" font-size="14" lengthAdjust="spacing" textLength="117.8037" x="606.7" y="1045.7889">char tipoReparto</text><line style="stroke:#E7E7E7;stroke-width:0.5;" x1="587.7" x2="729.5037" y1="1053.0906" y2="1053.0906"/></g><!--class Gasto--><g class="entity" data-entity="Gasto" data-source-line="74" data-uid="ent0010" id="entity_Gasto"><rect fill="#313139" height="113.1875" rx="2.5" ry="2.5" style="stroke:#E7E7E7;stroke-width:0.5;" width="164.7559" x="762.22" y="733.27"/><ellipse cx="819.9597" cy="749.27" fill="#2E5233" rx="11" ry="11" style="stroke:#E7E7E7;stroke-width:1;"/><path d="M822.9285,754.9106 Q822.3504,755.2075 821.7097,755.3481 Q821.0691,755.5044 820.366,755.5044 Q817.866,755.5044 816.5379,753.8638 Q815.2254,752.2075 815.2254,749.0825 Q815.2254,745.9575 816.5379,744.3013 Q817.866,742.645 820.366,742.645 Q821.0691,742.645 821.7097,742.8013 Q822.366,742.9575 822.9285,743.2544 L822.9285,745.9731 Q822.3035,745.395 821.7097,745.1294 Q821.116,744.8481 820.491,744.8481 Q819.1472,744.8481 818.4597,745.9263 Q817.7722,746.9888 817.7722,749.0825 Q817.7722,751.1763 818.4597,752.2544 Q819.1472,753.3169 820.491,753.3169 Q821.116,753.3169 821.7097,753.0513 Q822.3035,752.77 822.9285,752.1919 L822.9285,754.9106 Z " fill="#FFFFFF"/><text fill="#FFFFFF" font-family="sans-serif" font-size="14" lengthAdjust="spacing" textLength="40.7764" x="840.4597" y="754.1167">Gasto</text><line style="stroke:#E7E7E7;stroke-width:0.5;" x1="763.22" x2="925.9759" y1="765.27" y2="765.27"/><rect fill="none" height="6" style="stroke:#C82930;stroke-width:1;" width="6" x="770.22" y="775.9184"/><text fill="#FFFFFF" font-family="sans-serif" font-size="14" lengthAdjust="spacing" textLength="59.0078" x="782.22" y="782.2651">String id</text><rect fill="none" height="6" style="stroke:#C82930;stroke-width:1;" width="6" x="770.22" y="792.2153"/><text fill="#FFFFFF" font-family="sans-serif" font-size="14" lengthAdjust="spacing" textLength="126.2803" x="782.22" y="798.562">String descripcion</text><rect fill="none" height="6" style="stroke:#C82930;stroke-width:1;" width="6" x="770.22" y="808.5122"/><text fill="#FFFFFF" font-family="sans-serif" font-size="14" lengthAdjust="spacing" textLength="138.7559" x="782.22" y="814.8589">BigDecimal importe</text><rect fill="none" height="6" style="stroke:#C82930;stroke-width:1;" width="6" x="770.22" y="824.8091"/><text fill="#FFFFFF" font-family="sans-serif" font-size="14" lengthAdjust="spacing" textLength="73.4248" x="782.22" y="831.1557">Zona zona</text><line style="stroke:#E7E7E7;stroke-width:0.5;" x1="763.22" x2="925.9759" y1="838.4575" y2="838.4575"/></g><!--link ComunidadController to ComunidadService--><g class="link" data-entity-1="ComunidadController" data-entity-2="ComunidadService" data-source-line="81" data-uid="lnk11" id="link_ComunidadController_ComunidadService"><path codeLine="81" d="M346.6,169.48 C346.6,189.11 346.6,204.11 346.6,223.74" fill="none" id="ComunidadController-to-ComunidadService" style="stroke:#E7E7E7;stroke-width:1;"/><polygon fill="#E7E7E7" points="346.6,229.74,350.6,220.74,346.6,224.74,342.6,220.74,346.6,229.74" style="stroke:#E7E7E7;stroke-width:1;"/></g><!--link ComunidadService to Comunidad--><g class="link" data-entity-1="ComunidadService" data-entity-2="Comunidad" data-source-line="82" data-uid="lnk12" id="link_ComunidadService_Comunidad"><path codeLine="82" d="M452.23,392.48 C477.68,411.85 500.3754,429.1064 526.6954,449.1364" fill="none" id="ComunidadService-to-Comunidad" style="stroke:#E7E7E7;stroke-width:1;"/><polygon fill="#E7E7E7" points="531.47,452.77,526.7304,444.1365,527.4911,449.742,521.8857,450.5027,531.47,452.77" style="stroke:#E7E7E7;stroke-width:1;"/></g><!--link ComunidadService to FileParser--><g class="link" data-entity-1="ComunidadService" data-entity-2="FileParser" data-source-line="83" data-uid="lnk13" id="link_ComunidadService_FileParser"><path codeLine="83" d="M262.97,392.48 C234.42,419.92 207.0165,446.2629 179.1665,473.0229" fill="none" id="ComunidadService-to-FileParser" style="stroke:#E7E7E7;stroke-width:1;"/><polygon fill="#E7E7E7" points="174.84,477.18,184.1011,473.8286,178.4454,473.7157,178.5583,468.06,174.84,477.18" style="stroke:#E7E7E7;stroke-width:1;"/></g><!--link ComunidadService to CalculadoraCuotas--><g class="link" data-entity-1="ComunidadService" data-entity-2="CalculadoraCuotas" data-source-line="84" data-uid="lnk14" id="link_ComunidadService_CalculadoraCuotas"><path codeLine="84" d="M346.6,392.48 C346.6,422.74 346.6,450.73 346.6,479.32" fill="none" id="ComunidadService-to-CalculadoraCuotas" style="stroke:#E7E7E7;stroke-width:1;"/><polygon fill="#E7E7E7" points="346.6,485.32,350.6,476.32,346.6,480.32,342.6,476.32,346.6,485.32" style="stroke:#E7E7E7;stroke-width:1;"/></g><!--reverse link Comunidad to Zona--><g class="link" data-entity-1="Comunidad" data-entity-2="Zona" data-source-line="86" data-uid="lnk15" id="link_Comunidad_Zona"><path codeLine="86" d="M671.1479,660.255 C673.0679,680.235 673.6,689.22 674.6,708.83 C678.25,780.77 678.67,798.99 674.6,870.91 C672.84,901.96 668.91,936.69 665.39,963.88" fill="none" id="Comunidad-backto-Zona" style="stroke:#E7E7E7;stroke-width:1;"/><polygon fill="#E7E7E7" points="670,648.31,666.5923,654.6651,671.1479,660.255,674.5556,653.8999,670,648.31" style="stroke:#E7E7E7;stroke-width:1;"/><text fill="#FFFFFF" font-family="sans-serif" font-size="13" lengthAdjust="spacing" textLength="8.271" x="662.5297" y="667.7865">1</text><text fill="#FFFFFF" font-family="sans-serif" font-size="13" lengthAdjust="spacing" textLength="6.5" x="659.9579" y="953.0439">*</text></g><!--reverse link Comunidad to Propiedad--><g class="link" data-entity-1="Comunidad" data-entity-2="Propiedad" data-source-line="87" data-uid="lnk16" id="link_Comunidad_Propiedad"><path codeLine="87" d="M591.1764,658.1823 C578.5164,678.2023 571.73,688.96 559.49,708.34" fill="none" id="Comunidad-backto-Propiedad" style="stroke:#E7E7E7;stroke-width:1;"/><polygon fill="#E7E7E7" points="597.59,648.04,591.0024,650.9732,591.1764,658.1823,597.7639,655.249,597.59,648.04" style="stroke:#E7E7E7;stroke-width:1;"/><text fill="#FFFFFF" font-family="sans-serif" font-size="13" lengthAdjust="spacing" textLength="8.271" x="584.8256" y="667.8259">1</text><text fill="#FFFFFF" font-family="sans-serif" font-size="13" lengthAdjust="spacing" textLength="6.5" x="557.6274" y="697.7617">*</text></g><!--reverse link Comunidad to Propietario--><g class="link" data-entity-1="Comunidad" data-entity-2="Propietario" data-source-line="88" data-uid="lnk17" id="link_Comunidad_Propietario"><path codeLine="88" d="M490.8625,644.2973 C484.8225,647.3673 489.51,644.93 483.6,647.83 C422.29,677.88 380.09,651.76 342.6,708.83 C295.63,780.32 322.65,882.12 349,947.55" fill="none" id="Comunidad-backto-Propietario" style="stroke:#E7E7E7;stroke-width:1;"/><polygon fill="#E7E7E7" points="501.56,638.86,494.3988,638.0128,490.8625,644.2973,498.0237,645.1445,501.56,638.86" style="stroke:#E7E7E7;stroke-width:1;"/><text fill="#FFFFFF" font-family="sans-serif" font-size="13" lengthAdjust="spacing" textLength="8.271" x="485.2632" y="640.0999">1</text><text fill="#FFFFFF" font-family="sans-serif" font-size="13" lengthAdjust="spacing" textLength="6.5" x="339.3531" y="936.6833">*</text></g><!--reverse link Comunidad to Gasto--><g class="link" data-entity-1="Comunidad" data-entity-2="Gasto" data-source-line="89" data-uid="lnk18" id="link_Comunidad_Gasto"><path codeLine="89" d="M741.6514,657.4856 C764.2814,686.3656 780.93,707.61 800.78,732.95" fill="none" id="Comunidad-backto-Gasto" style="stroke:#E7E7E7;stroke-width:1;"/><polygon fill="#E7E7E7" points="734.25,648.04,734.8022,655.2299,741.6514,657.4856,741.0992,650.2956,734.25,648.04" style="stroke:#E7E7E7;stroke-width:1;"/><text fill="#FFFFFF" font-family="sans-serif" font-size="13" lengthAdjust="spacing" textLength="8.271" x="731.5216" y="667.8259">1</text><text fill="#FFFFFF" font-family="sans-serif" font-size="13" lengthAdjust="spacing" textLength="6.5" x="789.1045" y="722.1746">*</text></g><!--link Propiedad to Propietario--><g class="link" data-entity-1="Propiedad" data-entity-2="Propietario" data-source-line="91" data-uid="lnk19" id="link_Propiedad_Propietario"><path codeLine="91" d="M461.66,871.2 C446.96,896.35 430.95,923.76 417,947.63" fill="none" id="Propiedad-Propietario" style="stroke:#E7E7E7;stroke-width:1;"/><text fill="#FFFFFF" font-family="sans-serif" font-size="13" lengthAdjust="spacing" textLength="6.5" x="451.3902" y="890.9065">*</text><text fill="#FFFFFF" font-family="sans-serif" font-size="13" lengthAdjust="spacing" textLength="8.271" x="412.6687" y="936.772">1</text></g><!--link Propiedad to Zona--><g class="link" data-entity-1="Propiedad" data-entity-2="Zona" data-source-line="92" data-uid="lnk20" id="link_Propiedad_Zona"><path codeLine="92" d="M479,871.28 C477.42,887.5 479.28,903.86 487.6,917.91 C499.11,937.35 545.12,962.01 586.52,981.15" fill="none" id="Propiedad-Zona" style="stroke:#E7E7E7;stroke-width:1;"/><text fill="#FFFFFF" font-family="sans-serif" font-size="13" lengthAdjust="spacing" textLength="109.4463" x="488.6" y="913.9769">porcentajesZona</text><text fill="#FFFFFF" font-family="sans-serif" font-size="13" lengthAdjust="spacing" textLength="6.5" x="470.2203" y="890.9934">*</text><text fill="#FFFFFF" font-family="sans-serif" font-size="13" lengthAdjust="spacing" textLength="6.5" x="572.3353" y="973.959">*</text></g><!--link Propiedad to Zona--><g class="link" data-entity-1="Propiedad" data-entity-2="Zona" data-source-line="93" data-uid="lnk21" id="link_Propiedad_Zona"><path codeLine="93" d="M580.92,871.18 C588.58,880.94 595.98,890.97 602.6,900.91 C615.73,920.63 627.92,943.85 637.55,963.92" fill="none" id="Propiedad-Zona-1" style="stroke:#E7E7E7;stroke-width:1;"/><text fill="#FFFFFF" font-family="sans-serif" font-size="13" lengthAdjust="spacing" textLength="43.1768" x="612.6" y="913.9769">cuotas</text><text fill="#FFFFFF" font-family="sans-serif" font-size="13" lengthAdjust="spacing" textLength="6.5" x="580.8991" y="890.8848">*</text><text fill="#FFFFFF" font-family="sans-serif" font-size="13" lengthAdjust="spacing" textLength="6.5" x="628.2029" y="953.0895">*</text></g><!--link Gasto to Zona--><g class="link" data-entity-1="Gasto" data-entity-2="Zona" data-source-line="95" data-uid="lnk22" id="link_Gasto_Zona"><path codeLine="95" d="M797.42,846.86 C766.96,883.02 727.76,929.55 698.79,963.94" fill="none" id="Gasto-Zona" style="stroke:#E7E7E7;stroke-width:1;"/><text fill="#FFFFFF" font-family="sans-serif" font-size="13" lengthAdjust="spacing" textLength="6.5" x="785.6471" y="866.392">*</text><text fill="#FFFFFF" font-family="sans-serif" font-size="13" lengthAdjust="spacing" textLength="8.271" x="695.898" y="953.1124">1</text></g><!--SRC=[ZLKxRzim4DxrAmXFQLeDMOl2WEiYGO04DPAj6qDTb2ieKZXI6MhqlvSlYvHakV4GsFSTTT_Zn0Z9ZM5xtGqA6zxijRAafGHYnugvJpr2pq3lA829MI6qVUwqiSJfLbCtI4wehpv5e2Sjm73QaNZ3TsrEzNJWGBf7S4-3yuZrpvf3-q5RFYy-WHawKAxwjwh4LDQ9Uz9qYn8Ed8nJ-Jf-JNAv54v0eud7AKpCApDViY4xOGSkByjkmUwd_GLIIlv93IWtTJoPU2Jn1rqQL8ekn1qJ5_zhd3e6uwjttDXnH3rjV4054-INLdnH70DSGGA_XELW5YuVpudyeFHaduB95WGYfvDFu2XPxSzf4kY4o9MM-zPbWWjNSznfXvujeMePDfEVIdSl19DIhryazoDZzG6D_UQTtB8_xgyfggELMzRdrsBH4BYTMkAo53qXqIrhGx2n_iZxCF4B-uxj3n3OSRbbrdafmRlfiTYPyGZV1LDbjc6aEBD1w0PR7KkeBEl0NIDcF_26_0v7eA1Vif-Jl5SMMY2dq4K5olBVO3B5DD1YhwT1g5UzQp1cUqctY2_nJ59ajIvgFTy62KJEDrMXuoZ_d-t8mlFy-6g9Dqx1WhIq-JaX_iiFSdC5OPyf5wbZvqotQKhWv9VKF_xSluYwtYxks6fnwKwwpiFvpbevlhY3Sn_Rt6pOTLsppVKcsBW2ZGbSnED6dky8tbPLVWTyqMCtqzFBXiICVLtizANUjAbLpBGOvl5_]--></g></svg>